<?xml version="1.0" encoding="utf-8"?>
<!-- Generator: Adobe Illustrator 25.0.1, SVG Export Plug-In . SVG Version: 6.00 Build 0)  -->
<svg version="1.1" xmlns="http://www.w3.org/2000/svg" xmlns:xlink="http://www.w3.org/1999/xlink" x="0px" y="0px"
	 viewBox="0 0 900 600" style="enable-background:new 0 0 900 600;" xml:space="preserve">
<style type="text/css">
	.st0{fill:#F5DF4D;}
	.st1{opacity:0.95;fill:#FFFFFF;}
	.st2{clip-path:url(#SVGID_2_);}
	.st3{opacity:0.7;fill:#FFFFFF;}
	.st4{opacity:0.65;}
	.st5{opacity:0.5;fill:#FFFFFF;}
	.st6{fill:#939597;}
	.st7{opacity:0.3;}
	.st8{fill:#FFFFFF;}
	.st9{opacity:0.4;fill:#F5DF4D;}
</style>
<g id="BACKGROUND">
	<rect x="0" y="0" class="st0" width="900" height="600"/>
</g>
<g id="OBJECTS">
	<rect x="0" y="0" class="st1" width="900" height="600"/>
	<g>
		<defs>
			<rect id="SVGID_1_" x="0" y="0" width="900" height="600"/>
		</defs>
		<clipPath id="SVGID_2_">
			<use xlink:href="#SVGID_1_"  style="overflow:visible;"/>
		</clipPath>
		<g class="st2">
			<circle class="st0" cx="259.17" cy="230.21" r="167.78"/>
			<circle class="st3" cx="259.17" cy="230.21" r="167.78"/>
		</g>
		<g class="st2">
			<g>
				<path class="st0" d="M726.78,529.58c-3.06-0.73-6.15-1.28-9.26-1.64l-89.91,89.91c0.37,3.11,0.92,6.2,1.64,9.26L726.78,529.58z"
					/>
				<path class="st0" d="M742.9,535.27c-2.52-1.2-5.09-2.27-7.7-3.2L631.74,635.53c0.93,2.61,2,5.18,3.2,7.7L742.9,535.27z"/>
				<path class="st0" d="M707.17,527.39c-3.98,0.04-7.96,0.37-11.9,1l-67.21,67.21c-0.62,3.94-0.96,7.92-1,11.9L707.17,527.39z"/>
				<path class="st0" d="M765.24,551.09c-0.91-0.91-1.85-1.8-2.79-2.66L648.1,662.78c0.86,0.95,1.75,1.88,2.66,2.79
					c0.91,0.91,1.85,1.8,2.79,2.66L767.9,553.88C767.04,552.94,766.16,552.01,765.24,551.09z"/>
				<path class="st0" d="M680.62,532.14c-10.9,3.91-21.12,10.22-29.85,18.95c-8.73,8.73-15.04,18.96-18.95,29.85L680.62,532.14z"/>
				<path class="st0" d="M787.95,621.07c0.62-3.94,0.96-7.92,1-11.9l-80.11,80.11c3.98-0.04,7.96-0.37,11.9-1L787.95,621.07z"/>
				<path class="st0" d="M756.48,543.5c-2.11-1.58-4.28-3.05-6.5-4.4L638.77,650.31c1.35,2.22,2.82,4.39,4.4,6.5L756.48,543.5z"/>
				<path class="st0" d="M788.39,598.81c-0.37-3.11-0.92-6.2-1.64-9.26l-97.53,97.53c3.06,0.73,6.15,1.28,9.26,1.64L788.39,598.81z"
					/>
				<path class="st0" d="M765.25,665.57c8.73-8.73,15.04-18.95,18.94-29.85l-48.81,48.81c10.89-3.91,21.12-10.22,29.85-18.94
					L765.25,665.57z"/>
				<path class="st0" d="M777.23,566.36c-1.35-2.22-2.82-4.39-4.4-6.5L659.52,673.17c2.11,1.58,4.28,3.05,6.5,4.4L777.23,566.36z"/>
				<path class="st0" d="M784.26,581.14c-0.93-2.61-2-5.18-3.2-7.7L673.1,681.39c2.52,1.2,5.09,2.27,7.7,3.2L784.26,581.14z"/>
			</g>
			<g class="st4">
				<path class="st0" d="M726.78,529.58c-3.06-0.73-6.15-1.28-9.26-1.64l-89.91,89.91c0.37,3.11,0.92,6.2,1.64,9.26L726.78,529.58z"
					/>
				<path class="st0" d="M742.9,535.27c-2.52-1.2-5.09-2.27-7.7-3.2L631.74,635.53c0.93,2.61,2,5.18,3.2,7.7L742.9,535.27z"/>
				<path class="st0" d="M707.17,527.39c-3.98,0.04-7.96,0.37-11.9,1l-67.21,67.21c-0.62,3.94-0.96,7.92-1,11.9L707.17,527.39z"/>
				<path class="st0" d="M765.24,551.09c-0.91-0.91-1.85-1.8-2.79-2.66L648.1,662.78c0.86,0.95,1.75,1.88,2.66,2.79
					c0.91,0.91,1.85,1.8,2.79,2.66L767.9,553.88C767.04,552.94,766.16,552.01,765.24,551.09z"/>
				<path class="st0" d="M680.62,532.14c-10.9,3.91-21.12,10.22-29.85,18.95c-8.73,8.73-15.04,18.96-18.95,29.85L680.62,532.14z"/>
				<path class="st0" d="M787.95,621.07c0.62-3.94,0.96-7.92,1-11.9l-80.11,80.11c3.98-0.04,7.96-0.37,11.9-1L787.95,621.07z"/>
				<path class="st0" d="M756.48,543.5c-2.11-1.58-4.28-3.05-6.5-4.4L638.77,650.31c1.35,2.22,2.82,4.39,4.4,6.5L756.48,543.5z"/>
				<path class="st0" d="M788.39,598.81c-0.37-3.11-0.92-6.2-1.64-9.26l-97.53,97.53c3.06,0.73,6.15,1.28,9.26,1.64L788.39,598.81z"
					/>
				<path class="st0" d="M765.25,665.57c8.73-8.73,15.04-18.95,18.94-29.85l-48.81,48.81c10.89-3.91,21.12-10.22,29.85-18.94
					L765.25,665.57z"/>
				<path class="st0" d="M777.23,566.36c-1.35-2.22-2.82-4.39-4.4-6.5L659.52,673.17c2.11,1.58,4.28,3.05,6.5,4.4L777.23,566.36z"/>
				<path class="st0" d="M784.26,581.14c-0.93-2.61-2-5.18-3.2-7.7L673.1,681.39c2.52,1.2,5.09,2.27,7.7,3.2L784.26,581.14z"/>
			</g>
		</g>
		<g class="st2">
			<g>
				<rect x="808.75" y="508.75" class="st0" width="61.25" height="12.25"/>
				<rect x="808.75" y="508.75" class="st5" width="61.25" height="12.25"/>
			</g>
			<g>
				<rect x="808.75" y="533.25" class="st0" width="61.25" height="12.25"/>
				<rect x="808.75" y="533.25" class="st6" width="61.25" height="12.25"/>
			</g>
			<g>
				<rect x="808.75" y="557.75" class="st0" width="61.25" height="12.25"/>
			</g>
		</g>
		<g class="st2">
			<circle class="st0" cx="81.81" cy="95.93" r="38.29"/>
			<circle class="st6" cx="81.81" cy="95.93" r="38.29"/>
		</g>
		<g class="st2">
			<path class="st0" d="M162.76,101.65c-18.66-18.66-48.9-18.66-67.56,0c-18.66,18.66-18.66,48.9,0,67.56
				c18.66,18.66,48.9,18.66,67.56,0C181.42,150.55,181.42,120.31,162.76,101.65z M152.3,158.75c-6.23,6.23-14.51,9.66-23.32,9.66
				c-8.81,0-17.09-3.43-23.32-9.66c-6.23-6.23-9.66-14.51-9.66-23.32c0-8.81,3.43-17.09,9.66-23.32c6.23-6.23,14.51-9.66,23.32-9.66
				c8.81,0,17.09,3.43,23.32,9.66c6.23,6.23,9.66,14.51,9.66,23.32C161.96,144.24,158.53,152.52,152.3,158.75z"/>
		</g>
		<g class="st2">
			<path class="st0" d="M144.2,35.72c-4-4-10.48-4-14.48,0c-4,4-4,10.48,0,14.48c4,4,10.48,4,14.48,0S148.2,39.72,144.2,35.72z
				 M141.96,47.96c-1.34,1.34-3.11,2.07-5,2.07c-1.89,0-3.66-0.74-5-2.07c-1.34-1.34-2.07-3.11-2.07-5c0-1.89,0.74-3.66,2.07-5
				c1.34-1.34,3.11-2.07,5-2.07c1.89,0,3.66,0.74,5,2.07c1.34,1.34,2.07,3.11,2.07,5C144.03,44.84,143.3,46.62,141.96,47.96z"/>
		</g>
		<g class="st2">
			
				<rect x="35.98" y="126.71" transform="matrix(0.7071 -0.7071 0.7071 0.7071 -47.1562 146.6723)" class="st0" width="234.98" height="7.09"/>
			
				<rect x="35.98" y="126.71" transform="matrix(0.7071 -0.7071 0.7071 0.7071 -47.1562 146.6723)" class="st6" width="234.98" height="7.09"/>
		</g>
		<g class="st2">
			<rect x="497.98" y="24.75" class="st0" width="400.04" height="15.02"/>
			<rect x="497.98" y="24.75" class="st6" width="400.04" height="15.02"/>
		</g>
		<g class="st2">
			<path class="st0" d="M581.31,90.08v-265.13c0-45.71,37.18-82.89,82.89-82.89v430.9C618.49,172.97,581.31,135.78,581.31,90.08z"/>
			<path class="st5" d="M581.31,90.08v-265.13c0-45.71,37.18-82.89,82.89-82.89v430.9C618.49,172.97,581.31,135.78,581.31,90.08z"/>
		</g>
		<g class="st2">
			<g>
				
					<rect x="709.76" y="16.05" transform="matrix(-1.836970e-16 1 -1 -1.836970e-16 749.4296 -709.7559)" class="st0" width="39.67" height="7.58"/>
				
					<rect x="728.27" y="16.05" transform="matrix(-1.836970e-16 1 -1 -1.836970e-16 767.9429 -728.2691)" class="st0" width="39.67" height="7.57"/>
				
					<rect x="746.78" y="16.05" transform="matrix(-1.836970e-16 1 -1 -1.836970e-16 786.4561 -746.7823)" class="st0" width="39.67" height="7.58"/>
				
					<rect x="765.3" y="16.05" transform="matrix(-1.836970e-16 1 -1 -1.836970e-16 804.9694 -765.2957)" class="st0" width="39.67" height="7.58"/>
				
					<rect x="783.81" y="16.05" transform="matrix(-1.836970e-16 1 -1 -1.836970e-16 823.4827 -783.8089)" class="st0" width="39.67" height="7.58"/>
				
					<rect x="802.32" y="16.05" transform="matrix(-1.836970e-16 1 -1 -1.836970e-16 841.996 -802.3222)" class="st0" width="39.67" height="7.57"/>
				
					<rect x="820.84" y="16.05" transform="matrix(-1.836970e-16 1 -1 -1.836970e-16 860.5093 -820.8355)" class="st0" width="39.67" height="7.58"/>
				
					<rect x="839.35" y="16.05" transform="matrix(-1.836970e-16 1 -1 -1.836970e-16 879.0226 -839.3488)" class="st0" width="39.67" height="7.57"/>
				
					<rect x="857.86" y="16.05" transform="matrix(-1.836970e-16 1 -1 -1.836970e-16 897.5358 -857.862)" class="st0" width="39.67" height="7.58"/>
				
					<rect x="876.38" y="16.05" transform="matrix(-1.836970e-16 1 -1 -1.836970e-16 916.0491 -876.3753)" class="st0" width="39.67" height="7.58"/>
			</g>
			<g class="st7">
				
					<rect x="709.76" y="16.05" transform="matrix(-1.836970e-16 1 -1 -1.836970e-16 749.4296 -709.7559)" class="st8" width="39.67" height="7.58"/>
				
					<rect x="728.27" y="16.05" transform="matrix(-1.836970e-16 1 -1 -1.836970e-16 767.9429 -728.2691)" class="st8" width="39.67" height="7.57"/>
				
					<rect x="746.78" y="16.05" transform="matrix(-1.836970e-16 1 -1 -1.836970e-16 786.4561 -746.7823)" class="st8" width="39.67" height="7.58"/>
				
					<rect x="765.3" y="16.05" transform="matrix(-1.836970e-16 1 -1 -1.836970e-16 804.9694 -765.2957)" class="st8" width="39.67" height="7.58"/>
				
					<rect x="783.81" y="16.05" transform="matrix(-1.836970e-16 1 -1 -1.836970e-16 823.4827 -783.8089)" class="st8" width="39.67" height="7.58"/>
				
					<rect x="802.32" y="16.05" transform="matrix(-1.836970e-16 1 -1 -1.836970e-16 841.996 -802.3222)" class="st8" width="39.67" height="7.57"/>
				
					<rect x="820.84" y="16.05" transform="matrix(-1.836970e-16 1 -1 -1.836970e-16 860.5093 -820.8355)" class="st8" width="39.67" height="7.58"/>
				
					<rect x="839.35" y="16.05" transform="matrix(-1.836970e-16 1 -1 -1.836970e-16 879.0226 -839.3488)" class="st8" width="39.67" height="7.57"/>
				
					<rect x="857.86" y="16.05" transform="matrix(-1.836970e-16 1 -1 -1.836970e-16 897.5358 -857.862)" class="st8" width="39.67" height="7.58"/>
				
					<rect x="876.38" y="16.05" transform="matrix(-1.836970e-16 1 -1 -1.836970e-16 916.0491 -876.3753)" class="st8" width="39.67" height="7.58"/>
			</g>
		</g>
		<g class="st2">
			<path class="st0" d="M760.63,220.78c-4-4-10.48-4-14.48,0c-4,4-4,10.48,0,14.48c4,4,10.48,4,14.48,0
				C764.63,231.26,764.63,224.77,760.63,220.78z M760.46,228.02c0,1.89-0.74,3.66-2.07,5c-1.34,1.34-3.11,2.07-5,2.07
				c-1.89,0-3.66-0.74-5-2.07c-1.34-1.34-2.07-3.11-2.07-5c0-1.89,0.74-3.66,2.07-5c1.34-1.34,3.11-2.07,5-2.07
				c1.89,0,3.66,0.74,5,2.07C759.72,224.35,760.46,226.13,760.46,228.02z"/>
			<path class="st6" d="M760.63,220.78c-4-4-10.48-4-14.48,0c-4,4-4,10.48,0,14.48c4,4,10.48,4,14.48,0
				C764.63,231.26,764.63,224.77,760.63,220.78z M760.46,228.02c0,1.89-0.74,3.66-2.07,5c-1.34,1.34-3.11,2.07-5,2.07
				c-1.89,0-3.66-0.74-5-2.07c-1.34-1.34-2.07-3.11-2.07-5c0-1.89,0.74-3.66,2.07-5c1.34-1.34,3.11-2.07,5-2.07
				c1.89,0,3.66,0.74,5,2.07C759.72,224.35,760.46,226.13,760.46,228.02z"/>
		</g>
		<g class="st2">
			<path class="st0" d="M847.74,275.48L690.28,118.02c43.48-43.48,113.98-43.48,157.46,0C891.22,161.5,891.22,232,847.74,275.48z"/>
			<path class="st6" d="M847.74,275.48L690.28,118.02c43.48-43.48,113.98-43.48,157.46,0C891.22,161.5,891.22,232,847.74,275.48z"/>
		</g>
		<g class="st2">
			<path class="st0" d="M723.19,98.74v139.9c0,24.12-19.62,43.74-43.74,43.74c-24.12,0-43.74-19.62-43.74-43.74V98.74
				c0-24.12,19.62-43.74,43.74-43.74C703.57,55.01,723.19,74.63,723.19,98.74z M713.33,238.64V98.74c0-18.68-15.2-33.88-33.88-33.88
				c-18.68,0-33.88,15.2-33.88,33.88v139.9c0,18.68,15.2,33.88,33.88,33.88C698.13,272.52,713.33,257.32,713.33,238.64z"/>
		</g>
		<g class="st2">
			<circle class="st0" cx="724.21" cy="169.8" r="29.18"/>
			<circle class="st5" cx="724.21" cy="169.8" r="29.18"/>
		</g>
		<g class="st2">
			
				<rect x="764.74" y="73.8" transform="matrix(0.7071 -0.7071 0.7071 0.7071 203.706 646.4833)" class="st0" width="234.98" height="7.09"/>
			
				<rect x="764.74" y="73.8" transform="matrix(0.7071 -0.7071 0.7071 0.7071 203.706 646.4833)" class="st0" width="234.98" height="7.09"/>
		</g>
		<g class="st2">
			<g>
				<path class="st0" d="M868.19,402.02c-1,0-1.81-0.81-1.81-1.81c0-1,0.81-1.81,1.81-1.81c1,0,1.81,0.81,1.81,1.81
					C870,401.21,869.19,402.02,868.19,402.02z"/>
				<path class="st0" d="M868.19,382.06c-1,0-1.81-0.81-1.81-1.81c0-1,0.81-1.81,1.81-1.81c1,0,1.81,0.81,1.81,1.81
					C870,381.25,869.19,382.06,868.19,382.06z"/>
				<path class="st0" d="M868.19,362.1c-1,0-1.81-0.81-1.81-1.81c0-1,0.81-1.81,1.81-1.81c1,0,1.81,0.81,1.81,1.81
					C870,361.29,869.19,362.1,868.19,362.1z"/>
				<circle class="st0" cx="868.19" cy="340.33" r="1.81"/>
				<circle class="st0" cx="868.19" cy="320.37" r="1.81"/>
				<circle class="st0" cx="868.19" cy="300.41" r="1.81"/>
				<path class="st0" d="M868.19,282.26c-1,0-1.81-0.81-1.81-1.81c0-1,0.81-1.81,1.81-1.81c1,0,1.81,0.81,1.81,1.81
					C870,281.45,869.19,282.26,868.19,282.26z"/>
				<path class="st0" d="M868.19,262.31c-1,0-1.81-0.81-1.81-1.81c0-1,0.81-1.81,1.81-1.81c1,0,1.81,0.81,1.81,1.81
					C870,261.49,869.19,262.31,868.19,262.31z"/>
				<path class="st0" d="M868.19,242.35c-1,0-1.81-0.81-1.81-1.81c0-1,0.81-1.81,1.81-1.81c1,0,1.81,0.81,1.81,1.81
					C870,241.54,869.19,242.35,868.19,242.35z"/>
				<path class="st0" d="M868.19,222.39c-1,0-1.81-0.81-1.81-1.81c0-1,0.81-1.81,1.81-1.81c1,0,1.81,0.81,1.81,1.81
					C870,221.58,869.19,222.39,868.19,222.39z"/>
				<path class="st0" d="M868.19,202.43c-1,0-1.81-0.81-1.81-1.81c0-1,0.81-1.81,1.81-1.81c1,0,1.81,0.81,1.81,1.81
					C870,201.62,869.19,202.43,868.19,202.43z"/>
				<path class="st0" d="M868.19,182.47c-1,0-1.81-0.81-1.81-1.81c0-1,0.81-1.81,1.81-1.81c1,0,1.81,0.81,1.81,1.81
					C870,181.66,869.19,182.47,868.19,182.47z"/>
				<path class="st0" d="M868.19,162.51c-1,0-1.81-0.81-1.81-1.81c0-1,0.81-1.81,1.81-1.81c1,0,1.81,0.81,1.81,1.81
					C870,161.7,869.19,162.51,868.19,162.51z"/>
				<path class="st0" d="M851.18,402.02c-1,0-1.81-0.81-1.81-1.81c0-1,0.81-1.81,1.81-1.81c1,0,1.81,0.81,1.81,1.81
					C852.99,401.21,852.18,402.02,851.18,402.02z"/>
				<path class="st0" d="M851.18,382.06c-1,0-1.81-0.81-1.81-1.81c0-1,0.81-1.81,1.81-1.81c1,0,1.81,0.81,1.81,1.81
					C852.99,381.25,852.18,382.06,851.18,382.06z"/>
				<path class="st0" d="M851.18,362.1c-1,0-1.81-0.81-1.81-1.81c0-1,0.81-1.81,1.81-1.81c1,0,1.81,0.81,1.81,1.81
					C852.99,361.29,852.18,362.1,851.18,362.1z"/>
				<path class="st0" d="M851.18,342.14c-1,0-1.81-0.81-1.81-1.81c0-1,0.81-1.81,1.81-1.81c1,0,1.81,0.81,1.81,1.81
					C852.99,341.33,852.18,342.14,851.18,342.14z"/>
				<path class="st0" d="M851.18,322.18c-1,0-1.81-0.81-1.81-1.81c0-1,0.81-1.81,1.81-1.81c1,0,1.81,0.81,1.81,1.81
					C852.99,321.37,852.18,322.18,851.18,322.18z"/>
				<path class="st0" d="M851.18,302.22c-1,0-1.81-0.81-1.81-1.81s0.81-1.81,1.81-1.81c1,0,1.81,0.81,1.81,1.81
					S852.18,302.22,851.18,302.22z"/>
				<path class="st0" d="M851.18,282.26c-1,0-1.81-0.81-1.81-1.81c0-1,0.81-1.81,1.81-1.81c1,0,1.81,0.81,1.81,1.81
					C852.99,281.45,852.18,282.26,851.18,282.26z"/>
				<path class="st0" d="M851.18,262.31c-1,0-1.81-0.81-1.81-1.81c0-1,0.81-1.81,1.81-1.81c1,0,1.81,0.81,1.81,1.81
					C852.99,261.49,852.18,262.31,851.18,262.31z"/>
				<path class="st0" d="M851.18,242.35c-1,0-1.81-0.81-1.81-1.81c0-1,0.81-1.81,1.81-1.81c1,0,1.81,0.81,1.81,1.81
					C852.99,241.54,852.18,242.35,851.18,242.35z"/>
				<path class="st0" d="M851.18,222.39c-1,0-1.81-0.81-1.81-1.81c0-1,0.81-1.81,1.81-1.81c1,0,1.81,0.81,1.81,1.81
					C852.99,221.58,852.18,222.39,851.18,222.39z"/>
				<path class="st0" d="M851.18,202.43c-1,0-1.81-0.81-1.81-1.81c0-1,0.81-1.81,1.81-1.81c1,0,1.81,0.81,1.81,1.81
					C852.99,201.62,852.18,202.43,851.18,202.43z"/>
				<path class="st0" d="M851.18,182.47c-1,0-1.81-0.81-1.81-1.81c0-1,0.81-1.81,1.81-1.81c1,0,1.81,0.81,1.81,1.81
					C852.99,181.66,852.18,182.47,851.18,182.47z"/>
				<path class="st0" d="M851.18,162.51c-1,0-1.81-0.81-1.81-1.81c0-1,0.81-1.81,1.81-1.81c1,0,1.81,0.81,1.81,1.81
					C852.99,161.7,852.18,162.51,851.18,162.51z"/>
				<path class="st0" d="M834.17,402.02c-1,0-1.81-0.81-1.81-1.81c0-1,0.81-1.81,1.81-1.81c1,0,1.81,0.81,1.81,1.81
					C835.98,401.21,835.17,402.02,834.17,402.02z"/>
				<path class="st0" d="M834.17,382.06c-1,0-1.81-0.81-1.81-1.81c0-1,0.81-1.81,1.81-1.81c1,0,1.81,0.81,1.81,1.81
					C835.98,381.25,835.17,382.06,834.17,382.06z"/>
				<path class="st0" d="M834.17,362.1c-1,0-1.81-0.81-1.81-1.81c0-1,0.81-1.81,1.81-1.81c1,0,1.81,0.81,1.81,1.81
					C835.98,361.29,835.17,362.1,834.17,362.1z"/>
				<path class="st0" d="M834.17,342.14c-1,0-1.81-0.81-1.81-1.81c0-1,0.81-1.81,1.81-1.81c1,0,1.81,0.81,1.81,1.81
					C835.98,341.33,835.17,342.14,834.17,342.14z"/>
				<path class="st0" d="M834.17,322.18c-1,0-1.81-0.81-1.81-1.81c0-1,0.81-1.81,1.81-1.81c1,0,1.81,0.81,1.81,1.81
					C835.98,321.37,835.17,322.18,834.17,322.18z"/>
				<path class="st0" d="M834.17,302.22c-1,0-1.81-0.81-1.81-1.81s0.81-1.81,1.81-1.81c1,0,1.81,0.81,1.81,1.81
					S835.17,302.22,834.17,302.22z"/>
				<path class="st0" d="M834.17,282.26c-1,0-1.81-0.81-1.81-1.81c0-1,0.81-1.81,1.81-1.81c1,0,1.81,0.81,1.81,1.81
					C835.98,281.45,835.17,282.26,834.17,282.26z"/>
				<path class="st0" d="M834.17,262.31c-1,0-1.81-0.81-1.81-1.81c0-1,0.81-1.81,1.81-1.81c1,0,1.81,0.81,1.81,1.81
					C835.98,261.49,835.17,262.31,834.17,262.31z"/>
				<path class="st0" d="M834.17,242.35c-1,0-1.81-0.81-1.81-1.81c0-1,0.81-1.81,1.81-1.81c1,0,1.81,0.81,1.81,1.81
					C835.98,241.54,835.17,242.35,834.17,242.35z"/>
				<path class="st0" d="M834.17,222.39c-1,0-1.81-0.81-1.81-1.81c0-1,0.81-1.81,1.81-1.81c1,0,1.81,0.81,1.81,1.81
					C835.98,221.58,835.17,222.39,834.17,222.39z"/>
				<path class="st0" d="M834.17,202.43c-1,0-1.81-0.81-1.81-1.81c0-1,0.81-1.81,1.81-1.81c1,0,1.81,0.81,1.81,1.81
					C835.98,201.62,835.17,202.43,834.17,202.43z"/>
				<path class="st0" d="M834.17,182.47c-1,0-1.81-0.81-1.81-1.81c0-1,0.81-1.81,1.81-1.81c1,0,1.81,0.81,1.81,1.81
					C835.98,181.66,835.17,182.47,834.17,182.47z"/>
				<path class="st0" d="M834.17,162.51c-1,0-1.81-0.81-1.81-1.81c0-1,0.81-1.81,1.81-1.81c1,0,1.81,0.81,1.81,1.81
					C835.98,161.7,835.17,162.51,834.17,162.51z"/>
			</g>
		</g>
		<g class="st2">
			<g>
				<path class="st0" d="M223.5,346.99c-1,0-1.81,0.81-1.81,1.81c0,1,0.81,1.81,1.81,1.81c1,0,1.81-0.81,1.81-1.81
					C225.31,347.8,224.5,346.99,223.5,346.99z"/>
				<path class="st0" d="M223.5,366.95c-1,0-1.81,0.81-1.81,1.81c0,1,0.81,1.81,1.81,1.81c1,0,1.81-0.81,1.81-1.81
					C225.31,367.76,224.5,366.95,223.5,366.95z"/>
				<path class="st0" d="M223.5,386.91c-1,0-1.81,0.81-1.81,1.81c0,1,0.81,1.81,1.81,1.81c1,0,1.81-0.81,1.81-1.81
					C225.31,387.72,224.5,386.91,223.5,386.91z"/>
				<path class="st0" d="M223.5,406.87c-1,0-1.81,0.81-1.81,1.81c0,1,0.81,1.81,1.81,1.81c1,0,1.81-0.81,1.81-1.81
					C225.31,407.68,224.5,406.87,223.5,406.87z"/>
				<path class="st0" d="M223.5,426.83c-1,0-1.81,0.81-1.81,1.81s0.81,1.81,1.81,1.81c1,0,1.81-0.81,1.81-1.81
					S224.5,426.83,223.5,426.83z"/>
				<path class="st0" d="M223.5,446.79c-1,0-1.81,0.81-1.81,1.81c0,1,0.81,1.81,1.81,1.81c1,0,1.81-0.81,1.81-1.81
					C225.31,447.6,224.5,446.79,223.5,446.79z"/>
				<path class="st0" d="M223.5,466.75c-1,0-1.81,0.81-1.81,1.81c0,1,0.81,1.81,1.81,1.81c1,0,1.81-0.81,1.81-1.81
					C225.31,467.56,224.5,466.75,223.5,466.75z"/>
				<path class="st0" d="M223.5,486.71c-1,0-1.81,0.81-1.81,1.81c0,1,0.81,1.81,1.81,1.81c1,0,1.81-0.81,1.81-1.81
					C225.31,487.52,224.5,486.71,223.5,486.71z"/>
				<path class="st0" d="M223.5,506.67c-1,0-1.81,0.81-1.81,1.81c0,1,0.81,1.81,1.81,1.81c1,0,1.81-0.81,1.81-1.81
					C225.31,507.48,224.5,506.67,223.5,506.67z"/>
				<path class="st0" d="M223.5,526.63c-1,0-1.81,0.81-1.81,1.81c0,1,0.81,1.81,1.81,1.81c1,0,1.81-0.81,1.81-1.81
					C225.31,527.44,224.5,526.63,223.5,526.63z"/>
				<path class="st0" d="M223.5,546.59c-1,0-1.81,0.81-1.81,1.81c0,1,0.81,1.81,1.81,1.81c1,0,1.81-0.81,1.81-1.81
					C225.31,547.4,224.5,546.59,223.5,546.59z"/>
				<path class="st0" d="M223.5,566.55c-1,0-1.81,0.81-1.81,1.81c0,1,0.81,1.81,1.81,1.81c1,0,1.81-0.81,1.81-1.81
					C225.31,567.36,224.5,566.55,223.5,566.55z"/>
				<path class="st0" d="M223.5,586.51c-1,0-1.81,0.81-1.81,1.81c0,1,0.81,1.81,1.81,1.81c1,0,1.81-0.81,1.81-1.81
					C225.31,587.32,224.5,586.51,223.5,586.51z"/>
				<path class="st0" d="M206.5,346.99c-1,0-1.81,0.81-1.81,1.81c0,1,0.81,1.81,1.81,1.81c1,0,1.81-0.81,1.81-1.81
					C208.31,347.8,207.5,346.99,206.5,346.99z"/>
				<path class="st0" d="M206.5,366.95c-1,0-1.81,0.81-1.81,1.81c0,1,0.81,1.81,1.81,1.81c1,0,1.81-0.81,1.81-1.81
					C208.31,367.76,207.5,366.95,206.5,366.95z"/>
				<path class="st0" d="M206.5,386.91c-1,0-1.81,0.81-1.81,1.81c0,1,0.81,1.81,1.81,1.81c1,0,1.81-0.81,1.81-1.81
					C208.31,387.72,207.5,386.91,206.5,386.91z"/>
				<path class="st0" d="M206.5,406.87c-1,0-1.81,0.81-1.81,1.81c0,1,0.81,1.81,1.81,1.81c1,0,1.81-0.81,1.81-1.81
					C208.31,407.68,207.5,406.87,206.5,406.87z"/>
				<path class="st0" d="M206.5,426.83c-1,0-1.81,0.81-1.81,1.81s0.81,1.81,1.81,1.81c1,0,1.81-0.81,1.81-1.81
					S207.5,426.83,206.5,426.83z"/>
				<path class="st0" d="M206.5,446.79c-1,0-1.81,0.81-1.81,1.81c0,1,0.81,1.81,1.81,1.81c1,0,1.81-0.81,1.81-1.81
					C208.31,447.6,207.5,446.79,206.5,446.79z"/>
				<path class="st0" d="M206.5,466.75c-1,0-1.81,0.81-1.81,1.81c0,1,0.81,1.81,1.81,1.81c1,0,1.81-0.81,1.81-1.81
					C208.31,467.56,207.5,466.75,206.5,466.75z"/>
				<path class="st0" d="M206.5,486.71c-1,0-1.81,0.81-1.81,1.81c0,1,0.81,1.81,1.81,1.81c1,0,1.81-0.81,1.81-1.81
					C208.31,487.52,207.5,486.71,206.5,486.71z"/>
				<path class="st0" d="M206.5,506.67c-1,0-1.81,0.81-1.81,1.81c0,1,0.81,1.81,1.81,1.81c1,0,1.81-0.81,1.81-1.81
					C208.31,507.48,207.5,506.67,206.5,506.67z"/>
				<path class="st0" d="M206.5,526.63c-1,0-1.81,0.81-1.81,1.81c0,1,0.81,1.81,1.81,1.81c1,0,1.81-0.81,1.81-1.81
					C208.31,527.44,207.5,526.63,206.5,526.63z"/>
				<path class="st0" d="M206.5,546.59c-1,0-1.81,0.81-1.81,1.81c0,1,0.81,1.81,1.81,1.81c1,0,1.81-0.81,1.81-1.81
					C208.31,547.4,207.5,546.59,206.5,546.59z"/>
				<path class="st0" d="M206.5,566.55c-1,0-1.81,0.81-1.81,1.81c0,1,0.81,1.81,1.81,1.81c1,0,1.81-0.81,1.81-1.81
					C208.31,567.36,207.5,566.55,206.5,566.55z"/>
				<path class="st0" d="M206.5,586.51c-1,0-1.81,0.81-1.81,1.81c0,1,0.81,1.81,1.81,1.81c1,0,1.81-0.81,1.81-1.81
					C208.31,587.32,207.5,586.51,206.5,586.51z"/>
				<path class="st0" d="M189.49,346.99c-1,0-1.81,0.81-1.81,1.81c0,1,0.81,1.81,1.81,1.81c1,0,1.81-0.81,1.81-1.81
					C191.3,347.8,190.49,346.99,189.49,346.99z"/>
				<path class="st0" d="M189.49,366.95c-1,0-1.81,0.81-1.81,1.81c0,1,0.81,1.81,1.81,1.81c1,0,1.81-0.81,1.81-1.81
					C191.3,367.76,190.49,366.95,189.49,366.95z"/>
				<path class="st0" d="M189.49,386.91c-1,0-1.81,0.81-1.81,1.81c0,1,0.81,1.81,1.81,1.81c1,0,1.81-0.81,1.81-1.81
					C191.3,387.72,190.49,386.91,189.49,386.91z"/>
				<path class="st0" d="M189.49,406.87c-1,0-1.81,0.81-1.81,1.81c0,1,0.81,1.81,1.81,1.81c1,0,1.81-0.81,1.81-1.81
					C191.3,407.68,190.49,406.87,189.49,406.87z"/>
				<path class="st0" d="M189.49,426.83c-1,0-1.81,0.81-1.81,1.81s0.81,1.81,1.81,1.81c1,0,1.81-0.81,1.81-1.81
					S190.49,426.83,189.49,426.83z"/>
				<path class="st0" d="M189.49,446.79c-1,0-1.81,0.81-1.81,1.81c0,1,0.81,1.81,1.81,1.81c1,0,1.81-0.81,1.81-1.81
					C191.3,447.6,190.49,446.79,189.49,446.79z"/>
				<path class="st0" d="M189.49,466.75c-1,0-1.81,0.81-1.81,1.81c0,1,0.81,1.81,1.81,1.81c1,0,1.81-0.81,1.81-1.81
					C191.3,467.56,190.49,466.75,189.49,466.75z"/>
				<path class="st0" d="M189.49,486.71c-1,0-1.81,0.81-1.81,1.81c0,1,0.81,1.81,1.81,1.81c1,0,1.81-0.81,1.81-1.81
					C191.3,487.52,190.49,486.71,189.49,486.71z"/>
				<path class="st0" d="M189.49,506.67c-1,0-1.81,0.81-1.81,1.81c0,1,0.81,1.81,1.81,1.81c1,0,1.81-0.81,1.81-1.81
					C191.3,507.48,190.49,506.67,189.49,506.67z"/>
				<path class="st0" d="M189.49,526.63c-1,0-1.81,0.81-1.81,1.81c0,1,0.81,1.81,1.81,1.81c1,0,1.81-0.81,1.81-1.81
					C191.3,527.44,190.49,526.63,189.49,526.63z"/>
				<path class="st0" d="M189.49,546.59c-1,0-1.81,0.81-1.81,1.81c0,1,0.81,1.81,1.81,1.81c1,0,1.81-0.81,1.81-1.81
					C191.3,547.4,190.49,546.59,189.49,546.59z"/>
				<path class="st0" d="M189.49,566.55c-1,0-1.81,0.81-1.81,1.81c0,1,0.81,1.81,1.81,1.81c1,0,1.81-0.81,1.81-1.81
					C191.3,567.36,190.49,566.55,189.49,566.55z"/>
				<path class="st0" d="M189.49,586.51c-1,0-1.81,0.81-1.81,1.81c0,1,0.81,1.81,1.81,1.81c1,0,1.81-0.81,1.81-1.81
					C191.3,587.32,190.49,586.51,189.49,586.51z"/>
				<path class="st0" d="M172.48,346.99c-1,0-1.81,0.81-1.81,1.81c0,1,0.81,1.81,1.81,1.81c1,0,1.81-0.81,1.81-1.81
					C174.29,347.8,173.48,346.99,172.48,346.99z"/>
				<path class="st0" d="M172.48,366.95c-1,0-1.81,0.81-1.81,1.81c0,1,0.81,1.81,1.81,1.81c1,0,1.81-0.81,1.81-1.81
					C174.29,367.76,173.48,366.95,172.48,366.95z"/>
				<path class="st0" d="M172.48,386.91c-1,0-1.81,0.81-1.81,1.81c0,1,0.81,1.81,1.81,1.81c1,0,1.81-0.81,1.81-1.81
					C174.29,387.72,173.48,386.91,172.48,386.91z"/>
				<path class="st0" d="M172.48,406.87c-1,0-1.81,0.81-1.81,1.81c0,1,0.81,1.81,1.81,1.81c1,0,1.81-0.81,1.81-1.81
					C174.29,407.68,173.48,406.87,172.48,406.87z"/>
				<path class="st0" d="M172.48,426.83c-1,0-1.81,0.81-1.81,1.81s0.81,1.81,1.81,1.81c1,0,1.81-0.81,1.81-1.81
					S173.48,426.83,172.48,426.83z"/>
				<path class="st0" d="M172.48,446.79c-1,0-1.81,0.81-1.81,1.81c0,1,0.81,1.81,1.81,1.81c1,0,1.81-0.81,1.81-1.81
					C174.29,447.6,173.48,446.79,172.48,446.79z"/>
				<path class="st0" d="M172.48,466.75c-1,0-1.81,0.81-1.81,1.81c0,1,0.81,1.81,1.81,1.81c1,0,1.81-0.81,1.81-1.81
					C174.29,467.56,173.48,466.75,172.48,466.75z"/>
				<path class="st0" d="M172.48,486.71c-1,0-1.81,0.81-1.81,1.81c0,1,0.81,1.81,1.81,1.81c1,0,1.81-0.81,1.81-1.81
					C174.29,487.52,173.48,486.71,172.48,486.71z"/>
				<path class="st0" d="M172.48,506.67c-1,0-1.81,0.81-1.81,1.81c0,1,0.81,1.81,1.81,1.81c1,0,1.81-0.81,1.81-1.81
					C174.29,507.48,173.48,506.67,172.48,506.67z"/>
				<path class="st0" d="M172.48,526.63c-1,0-1.81,0.81-1.81,1.81c0,1,0.81,1.81,1.81,1.81c1,0,1.81-0.81,1.81-1.81
					C174.29,527.44,173.48,526.63,172.48,526.63z"/>
				<path class="st0" d="M172.48,546.59c-1,0-1.81,0.81-1.81,1.81c0,1,0.81,1.81,1.81,1.81c1,0,1.81-0.81,1.81-1.81
					C174.29,547.4,173.48,546.59,172.48,546.59z"/>
				<path class="st0" d="M172.48,566.55c-1,0-1.81,0.81-1.81,1.81c0,1,0.81,1.81,1.81,1.81c1,0,1.81-0.81,1.81-1.81
					C174.29,567.36,173.48,566.55,172.48,566.55z"/>
				<path class="st0" d="M172.48,586.51c-1,0-1.81,0.81-1.81,1.81c0,1,0.81,1.81,1.81,1.81c1,0,1.81-0.81,1.81-1.81
					C174.29,587.32,173.48,586.51,172.48,586.51z"/>
				<path class="st0" d="M155.48,346.99c-1,0-1.81,0.81-1.81,1.81c0,1,0.81,1.81,1.81,1.81s1.81-0.81,1.81-1.81
					C157.29,347.8,156.48,346.99,155.48,346.99z"/>
				<path class="st0" d="M155.48,366.95c-1,0-1.81,0.81-1.81,1.81c0,1,0.81,1.81,1.81,1.81s1.81-0.81,1.81-1.81
					C157.29,367.76,156.48,366.95,155.48,366.95z"/>
				<path class="st0" d="M155.48,386.91c-1,0-1.81,0.81-1.81,1.81c0,1,0.81,1.81,1.81,1.81s1.81-0.81,1.81-1.81
					C157.29,387.72,156.48,386.91,155.48,386.91z"/>
				<circle class="st0" cx="155.48" cy="408.68" r="1.81"/>
				<circle class="st0" cx="155.48" cy="428.64" r="1.81"/>
				<circle class="st0" cx="155.48" cy="448.6" r="1.81"/>
				<path class="st0" d="M155.48,466.75c-1,0-1.81,0.81-1.81,1.81c0,1,0.81,1.81,1.81,1.81s1.81-0.81,1.81-1.81
					C157.29,467.56,156.48,466.75,155.48,466.75z"/>
				<path class="st0" d="M155.48,486.71c-1,0-1.81,0.81-1.81,1.81c0,1,0.81,1.81,1.81,1.81s1.81-0.81,1.81-1.81
					C157.29,487.52,156.48,486.71,155.48,486.71z"/>
				<path class="st0" d="M155.48,506.67c-1,0-1.81,0.81-1.81,1.81c0,1,0.81,1.81,1.81,1.81s1.81-0.81,1.81-1.81
					C157.29,507.48,156.48,506.67,155.48,506.67z"/>
				<path class="st0" d="M155.48,526.63c-1,0-1.81,0.81-1.81,1.81c0,1,0.81,1.81,1.81,1.81s1.81-0.81,1.81-1.81
					C157.29,527.44,156.48,526.63,155.48,526.63z"/>
				<path class="st0" d="M155.48,546.59c-1,0-1.81,0.81-1.81,1.81c0,1,0.81,1.81,1.81,1.81s1.81-0.81,1.81-1.81
					C157.29,547.4,156.48,546.59,155.48,546.59z"/>
				<path class="st0" d="M155.48,566.55c-1,0-1.81,0.81-1.81,1.81c0,1,0.81,1.81,1.81,1.81s1.81-0.81,1.81-1.81
					C157.29,567.36,156.48,566.55,155.48,566.55z"/>
				<path class="st0" d="M155.48,586.51c-1,0-1.81,0.81-1.81,1.81c0,1,0.81,1.81,1.81,1.81s1.81-0.81,1.81-1.81
					C157.29,587.32,156.48,586.51,155.48,586.51z"/>
				<path class="st0" d="M138.47,346.99c-1,0-1.81,0.81-1.81,1.81c0,1,0.81,1.81,1.81,1.81c1,0,1.81-0.81,1.81-1.81
					C140.28,347.8,139.47,346.99,138.47,346.99z"/>
				<path class="st0" d="M138.47,366.95c-1,0-1.81,0.81-1.81,1.81c0,1,0.81,1.81,1.81,1.81c1,0,1.81-0.81,1.81-1.81
					C140.28,367.76,139.47,366.95,138.47,366.95z"/>
				<path class="st0" d="M138.47,386.91c-1,0-1.81,0.81-1.81,1.81c0,1,0.81,1.81,1.81,1.81c1,0,1.81-0.81,1.81-1.81
					C140.28,387.72,139.47,386.91,138.47,386.91z"/>
				<path class="st0" d="M138.47,406.87c-1,0-1.81,0.81-1.81,1.81c0,1,0.81,1.81,1.81,1.81c1,0,1.81-0.81,1.81-1.81
					C140.28,407.68,139.47,406.87,138.47,406.87z"/>
				<path class="st0" d="M138.47,426.83c-1,0-1.81,0.81-1.81,1.81s0.81,1.81,1.81,1.81c1,0,1.81-0.81,1.81-1.81
					S139.47,426.83,138.47,426.83z"/>
				<path class="st0" d="M138.47,446.79c-1,0-1.81,0.81-1.81,1.81c0,1,0.81,1.81,1.81,1.81c1,0,1.81-0.81,1.81-1.81
					C140.28,447.6,139.47,446.79,138.47,446.79z"/>
				<path class="st0" d="M138.47,466.75c-1,0-1.81,0.81-1.81,1.81c0,1,0.81,1.81,1.81,1.81c1,0,1.81-0.81,1.81-1.81
					C140.28,467.56,139.47,466.75,138.47,466.75z"/>
				<path class="st0" d="M138.47,486.71c-1,0-1.81,0.81-1.81,1.81c0,1,0.81,1.81,1.81,1.81c1,0,1.81-0.81,1.81-1.81
					C140.28,487.52,139.47,486.71,138.47,486.71z"/>
				<path class="st0" d="M138.47,506.67c-1,0-1.81,0.81-1.81,1.81c0,1,0.81,1.81,1.81,1.81c1,0,1.81-0.81,1.81-1.81
					C140.28,507.48,139.47,506.67,138.47,506.67z"/>
				<path class="st0" d="M138.47,526.63c-1,0-1.81,0.81-1.81,1.81c0,1,0.81,1.81,1.81,1.81c1,0,1.81-0.81,1.81-1.81
					C140.28,527.44,139.47,526.63,138.47,526.63z"/>
				<path class="st0" d="M138.47,546.59c-1,0-1.81,0.81-1.81,1.81c0,1,0.81,1.81,1.81,1.81c1,0,1.81-0.81,1.81-1.81
					C140.28,547.4,139.47,546.59,138.47,546.59z"/>
				<path class="st0" d="M138.47,566.55c-1,0-1.81,0.81-1.81,1.81c0,1,0.81,1.81,1.81,1.81c1,0,1.81-0.81,1.81-1.81
					C140.28,567.36,139.47,566.55,138.47,566.55z"/>
				<path class="st0" d="M138.47,586.51c-1,0-1.81,0.81-1.81,1.81c0,1,0.81,1.81,1.81,1.81c1,0,1.81-0.81,1.81-1.81
					C140.28,587.32,139.47,586.51,138.47,586.51z"/>
			</g>
		</g>
		<g class="st2">
			<circle class="st0" cx="22.7" cy="368.08" r="79.37"/>
		</g>
		<g class="st2">
			<path class="st0" d="M79.71,465.77c6.83,6.83,17.89,6.83,24.72,0c6.83-6.83,6.83-17.89,0-24.72c-6.83-6.83-17.89-6.83-24.72,0
				C72.89,447.88,72.89,458.94,79.71,465.77z"/>
			<path class="st6" d="M79.71,465.77c6.83,6.83,17.89,6.83,24.72,0c6.83-6.83,6.83-17.89,0-24.72c-6.83-6.83-17.89-6.83-24.72,0
				C72.89,447.88,72.89,458.94,79.71,465.77z"/>
		</g>
		<g class="st2">
			
				<rect x="37.71" y="518.74" transform="matrix(-1.836970e-16 1 -1 -1.836970e-16 637.7127 480.6588)" class="st0" width="81.63" height="80.88"/>
			
				<rect x="37.71" y="518.74" transform="matrix(-1.836970e-16 1 -1 -1.836970e-16 637.7127 480.6588)" class="st6" width="81.63" height="80.88"/>
		</g>
		<g class="st2">
			
				<rect x="259.03" y="471.1" transform="matrix(-1.836970e-16 1 -1 -1.836970e-16 859.025 309.6885)" class="st0" width="31.29" height="226.52"/>
		</g>
		<g class="st2">
			<g>
				<path class="st0" d="M203.54,600H195V291.17c0-36.05-29.33-65.39-65.39-65.39c-36.05,0-65.39,29.33-65.39,65.39V600h-8.54
					V291.17c0-40.76,33.16-73.92,73.92-73.92c40.76,0,73.92,33.16,73.92,73.92V600z"/>
				<path class="st9" d="M203.54,600H195V291.17c0-36.05-29.33-65.39-65.39-65.39c-36.05,0-65.39,29.33-65.39,65.39V600h-8.54
					V291.17c0-40.76,33.16-73.92,73.92-73.92c40.76,0,73.92,33.16,73.92,73.92V600z"/>
			</g>
			<g>
				<path class="st0" d="M213.5,600h-28.46V291.17c0-30.56-24.86-55.43-55.43-55.43v-28.46c46.25,0,83.88,37.63,83.88,83.88V600z"/>
				<path class="st5" d="M213.5,600h-28.46V291.17c0-30.56-24.86-55.43-55.43-55.43v-28.46c46.25,0,83.88,37.63,83.88,83.88V600z"/>
			</g>
		</g>
		<g class="st2">
			<path class="st0" d="M29.68,423.03c-15.3-15.3-40.1-15.3-55.4,0c-15.3,15.3-15.3,40.1,0,55.4c15.3,15.3,40.1,15.3,55.4,0
				C44.98,463.14,44.98,438.33,29.68,423.03z M21.11,469.86c-5.11,5.11-11.9,7.92-19.12,7.92c-7.22,0-14.02-2.81-19.12-7.92
				c-5.11-5.11-7.92-11.9-7.92-19.12c0-7.22,2.81-14.02,7.92-19.12c5.11-5.11,11.9-7.92,19.12-7.92c7.22,0,14.02,2.81,19.12,7.92
				c5.11,5.11,7.92,11.9,7.92,19.12C29.03,457.96,26.21,464.75,21.11,469.86z"/>
			<path class="st5" d="M29.68,423.03c-15.3-15.3-40.1-15.3-55.4,0c-15.3,15.3-15.3,40.1,0,55.4c15.3,15.3,40.1,15.3,55.4,0
				C44.98,463.14,44.98,438.33,29.68,423.03z M21.11,469.86c-5.11,5.11-11.9,7.92-19.12,7.92c-7.22,0-14.02-2.81-19.12-7.92
				c-5.11-5.11-7.92-11.9-7.92-19.12c0-7.22,2.81-14.02,7.92-19.12c5.11-5.11,11.9-7.92,19.12-7.92c7.22,0,14.02,2.81,19.12,7.92
				c5.11,5.11,7.92,11.9,7.92,19.12C29.03,457.96,26.21,464.75,21.11,469.86z"/>
		</g>
		<g class="st2">
			<g>
				<path class="st0" d="M306.66,533.25c-11.49-11.49-30.11-11.49-41.6,0c-11.49,11.49-11.49,30.11,0,41.6
					c11.49,11.49,30.11,11.49,41.6,0C318.15,563.37,318.15,544.74,306.66,533.25z M295.85,564.05c-2.67,2.67-6.22,4.14-9.99,4.14
					c-3.77,0-7.32-1.47-9.99-4.14c-2.67-2.67-4.14-6.22-4.14-9.99c0-3.77,1.47-7.32,4.14-9.99c2.67-2.67,6.22-4.14,9.99-4.14
					c3.77,0,7.32,1.47,9.99,4.14c2.67,2.67,4.14,6.22,4.14,9.99C299.99,557.83,298.52,561.38,295.85,564.05z"/>
			</g>
			<g>
				<path class="st6" d="M306.66,533.25c-11.49-11.49-30.11-11.49-41.6,0c-11.49,11.49-11.49,30.11,0,41.6
					c11.49,11.49,30.11,11.49,41.6,0C318.15,563.37,318.15,544.74,306.66,533.25z M295.85,564.05c-2.67,2.67-6.22,4.14-9.99,4.14
					c-3.77,0-7.32-1.47-9.99-4.14c-2.67-2.67-4.14-6.22-4.14-9.99c0-3.77,1.47-7.32,4.14-9.99c2.67-2.67,6.22-4.14,9.99-4.14
					c3.77,0,7.32,1.47,9.99,4.14c2.67,2.67,4.14,6.22,4.14,9.99C299.99,557.83,298.52,561.38,295.85,564.05z"/>
			</g>
		</g>
	</g>
</g>
</svg>
